# xmcd CD database file
#
# Track frame offsets:
#	150
#	31563
#	55077
#	77824
#	88140
#	117741
#	148532
#	178552
#	200684
#
# Disc length: 3295 seconds
#
# Revision: 0
# Processed by: cddbd v1.5.1PL0 Copyright (c) Steve Scherf et al.
# Submitted via: CDex 1.51
#
DISCID=770cdd09
DTITLE=Pierre Dorge and New Jungle Orchestra - Dancing Cheek To Cheek
DYEAR=2004
DGENRE=Jazz
TTITLE0=Cheek To Cheek
TTITLE1=Rosa Abe Dongola
TTITLE2=Munzun Mun
TTITLE3=Something New From Africa
TTITLE4=Zulu Dance
TTITLE5=Dukish Mingus
TTITLE6=Body And Soul
TTITLE7=Sun Ra Saluting Mars
TTITLE8=Xing Xang
EXTD=YEAR: 2004
EXTT0=
EXTT1=
EXTT2=
EXTT3=
EXTT4=
EXTT5=
EXTT6=
EXTT7=
EXTT8=
PLAYORDER=
